<?xml version="1.0" standalone="no"?>
<!DOCTYPE svg PUBLIC "-//W3C//DTD SVG 20010904//EN"
 "http://www.w3.org/TR/2001/REC-SVG-20010904/DTD/svg10.dtd">
<svg version="1.0" xmlns="http://www.w3.org/2000/svg"
 width="225.000000pt" height="225.000000pt" viewBox="0 0 225.000000 225.000000"
 preserveAspectRatio="xMidYMid meet">

<g transform="translate(0.000000,225.000000) scale(0.100000,-0.100000)"
fill="#000000" stroke="none">
<path d="M1082 2216 c-39 -45 -77 -127 -92 -201 -28 -133 24 -296 76 -243 14
13 13 21 -2 67 -24 75 -15 171 24 255 17 36 34 66 37 66 3 0 20 -30 37 -66 39
-84 48 -180 24 -255 -15 -46 -16 -54 -2 -67 52 -53 104 110 76 243 -21 103
-97 235 -135 235 -7 0 -26 -15 -43 -34z"/>
<path d="M739 1814 c-10 -12 -14 -40 -13 -93 3 -165 90 -286 246 -341 60 -21
91 -13 86 23 -2 16 -18 26 -63 42 -113 41 -188 133 -201 251 l-7 57 37 -6 c92
-15 198 -94 240 -179 24 -48 26 -62 26 -181 l0 -129 -51 46 c-27 25 -74 57
-103 71 -56 27 -164 52 -189 42 -37 -14 -28 -177 15 -265 45 -94 164 -181 252
-185 37 -2 41 0 41 22 0 26 -7 31 -77 56 -101 35 -173 133 -185 253 l-6 55 29
-7 c71 -18 145 -61 194 -112 73 -77 80 -100 80 -259 l0 -135 -41 40 c-23 22
-75 57 -115 77 -60 29 -86 36 -136 37 l-62 1 -9 -40 c-11 -53 7 -163 37 -224
41 -80 134 -153 229 -179 50 -14 69 -6 65 26 -2 21 -12 28 -55 42 -68 22 -124
62 -159 111 -28 41 -54 123 -54 172 0 28 1 29 37 22 93 -17 196 -94 237 -178
l26 -51 0 -329 c0 -328 4 -367 35 -367 31 0 35 39 35 367 l0 329 26 51 c41 84
144 161 237 178 36 7 37 6 37 -22 0 -49 -26 -131 -54 -172 -35 -49 -91 -89
-159 -111 -43 -14 -53 -21 -55 -42 -4 -32 15 -40 65 -26 95 26 188 99 229 179
30 61 48 171 37 224 l-9 40 -62 -1 c-50 -1 -76 -8 -136 -37 -40 -20 -92 -55
-115 -77 l-41 -40 0 135 c0 159 7 182 80 259 49 51 123 94 194 112 l29 7 -6
-55 c-12 -120 -84 -218 -185 -253 -70 -25 -77 -30 -77 -56 0 -22 4 -24 41 -22
88 4 207 91 252 185 43 88 52 251 15 265 -25 10 -133 -15 -189 -42 -29 -14
-76 -46 -103 -71 l-51 -46 0 129 c0 119 2 133 26 181 42 85 148 164 240 179
l37 6 -7 -57 c-13 -118 -88 -210 -201 -251 -45 -16 -61 -26 -63 -42 -5 -36 26
-44 86 -23 157 55 243 176 246 342 1 108 -7 116 -106 94 -111 -25 -212 -91
-274 -179 l-19 -28 -37 49 c-62 84 -171 145 -299 167 -27 5 -39 2 -50 -11z"/>
</g>
</svg>
